<svg xmlns="http://www.w3.org/2000/svg" viewBox="0 0 512 512">
  <path fill="#2b5f9e" d="M 120 200 L 256 90 L 392 200 L 350 200 L 256 125 L 162 200 Z M 135 250 L 220 250 L 240 360 L 200 360 L 190 310 L 150 310 L 140 360 L 100 360 Z M 155 270 L 175 270 L 165 300 Z M 250 250 L 330 250 C 350 250 360 260 360 275 C 360 285 350 295 335 300 C 355 305 365 315 365 335 C 365 350 350 360 330 360 L 250 360 Z M 285 275 L 285 295 L 315 295 C 325 295 330 290 330 285 C 330 280 325 275 315 275 Z M 285 315 L 285 340 L 320 340 C 330 340 335 335 335 328 C 335 320 330 315 320 315 Z"/>
</svg>